<svg width="14" height="14" viewBox="0 0 14 14" fill="none" xmlns="http://www.w3.org/2000/svg">
<path d="M1.33964 2.41643C1.17677 2.61189 1.08757 2.85826 1.08757 3.11268V10.8757C1.08757 11.7767 1.81795 12.507 2.71892 12.507H10.3319C11.2329 12.507 11.9633 11.7767 11.9633 10.8757V3.11268C11.9633 2.85826 11.8741 2.61188 11.7112 2.41643L10.4767 0.935109C10.2701 0.687151 9.96402 0.543785 9.64125 0.543785H3.40957C3.0868 0.543785 2.78071 0.687151 2.57408 0.935109L1.33964 2.41643Z" stroke="#FCFCFC" stroke-width="1.08757"/>
<path d="M1.08757 2.99081H11.9633" stroke="#FCFCFC" stroke-width="1.08757"/>
<path d="M8.70055 5.43785C8.70055 6.63914 7.72671 7.61298 6.52541 7.61298C5.32412 7.61298 4.35028 6.63914 4.35028 5.43785" stroke="#FCFCFC" stroke-width="1.08757" stroke-linecap="round"/>
</svg>
